<svg width="1280" height="720" viewBox="0 0 1280 720" fill="none" xmlns="http://www.w3.org/2000/svg">
  <rect width="1280" height="720" fill="#F6F4F0"/>
  <g opacity="0.18">
    <circle cx="962" cy="160" r="142" stroke="#C8DDBF" stroke-width="1.5"/>
    <circle cx="320" cy="548" r="110" stroke="#284139" stroke-width="1.5"/>
  </g>
  <g transform="translate(0 18)">
    <path d="M382 348C461.628 275.36 544.087 238 629.5 238C695.642 238 752.494 260.938 800 306.5C846.886 351.467 888.72 372 925.5 372C955.779 372 983.946 363.912 1010 347.5" stroke="#6A1A28" stroke-width="6" stroke-linecap="round"/>
    <path d="M376 392C458.167 457.242 543.667 489.863 632.5 489.863C695.905 489.863 753.072 470.866 804 432.872C856.521 393.69 903.021 374.099 943.5 374.099C968.035 374.099 990.202 379.883 1010 391.45" stroke="#284139" stroke-width="6" stroke-linecap="round"/>
    <path d="M626 240C646.333 281.333 666.667 322.667 687 364" stroke="#8B2535" stroke-width="4.5" stroke-linecap="round" opacity="0.65"/>
    <path d="M627 489C646.667 447.333 666.333 405.667 686 364" stroke="#8CA18E" stroke-width="4.5" stroke-linecap="round" opacity="0.85"/>
    <circle cx="628.5" cy="239.5" r="7.5" fill="#6A1A28"/>
    <circle cx="632.5" cy="489.5" r="7.5" fill="#284139"/>
    <circle cx="686.5" cy="364.5" r="6.5" fill="#DCC796"/>
  </g>
  <text x="640" y="542" text-anchor="middle" fill="#6A1A28" font-family="Cormorant, 'Times New Roman', serif" font-size="92" font-weight="400" letter-spacing="0.05em">LUCIMAR ANTUNES</text>
  <text x="640" y="619" text-anchor="middle" fill="#8CA18E" font-family="Outfit, Arial, sans-serif" font-size="38" font-weight="400" letter-spacing="0.36em">PSICÓLOGA</text>
</svg>
