<svg width="1280" height="720" viewBox="0 0 1280 720" fill="none" xmlns="http://www.w3.org/2000/svg">
  <rect width="1280" height="720" fill="#F6F4F0"/>
  <g opacity="0.14">
    <circle cx="962" cy="152" r="128" stroke="#C8DDBF" stroke-width="1.5"/>
    <circle cx="324" cy="520" r="102" stroke="#8B2535" stroke-width="1.5"/>
  </g>
  <g transform="translate(0 8)">
    <path d="M546 176V405C546 461.697 508.863 501.697 444 531" stroke="#6A1A28" stroke-width="6" stroke-linecap="round"/>
    <path d="M546 405C591.58 401.56 633.413 387.393 671.5 362.5C733.702 321.856 768 258.39 768 177" stroke="#6A1A28" stroke-width="6" stroke-linecap="round"/>
    <path d="M482 446C488.48 344.967 518.427 180 640.5 180C764.877 180 794 352.345 794 452" stroke="#284139" stroke-width="6" stroke-linecap="round"/>
    <path d="M528 309C568.527 316.143 607.527 309.643 645 289.5C689.465 265.592 729.465 227.092 765 174" stroke="#284139" stroke-width="4" stroke-linecap="round" opacity="0.82"/>
    <path d="M793 451C802.317 489.036 825.984 515.369 864 530" stroke="#284139" stroke-width="4" stroke-linecap="round" opacity="0.82"/>
    <path d="M453 531H867" stroke="#DCC796" stroke-width="1.5" stroke-linecap="round" opacity="0.7"/>
  </g>
  <text x="640" y="540" text-anchor="middle" fill="#6A1A28" font-family="Cormorant, 'Times New Roman', serif" font-size="96" font-weight="400" letter-spacing="0.06em">LUCIMAR ANTUNES</text>
  <text x="640" y="618" text-anchor="middle" fill="#284139" font-family="Outfit, Arial, sans-serif" font-size="34" font-weight="400" letter-spacing="0.42em">PSICÓLOGA</text>
</svg>
