<svg width="1280" height="720" viewBox="0 0 1280 720" fill="none" xmlns="http://www.w3.org/2000/svg">
  <rect width="1280" height="720" fill="#F6F4F0"/>
  <g opacity="0.14">
    <circle cx="970" cy="160" r="128" stroke="#C8DDBF" stroke-width="1.5"/>
    <circle cx="318" cy="512" r="104" stroke="#284139" stroke-width="1.5"/>
  </g>
  <g transform="translate(0 6)">
    <path d="M547 176V404C547 458.888 510.866 499.225 446 528" stroke="#6A1A28" stroke-width="6" stroke-linecap="round"/>
    <path d="M548 404C590.867 401.548 631.314 387.943 669 363.5C731.614 322.898 766 257.354 766 179" stroke="#6A1A28" stroke-width="6" stroke-linecap="round"/>
    <path d="M482 446C488.48 344.967 518.427 180 640.5 180C764.877 180 794 352.345 794 452" stroke="#284139" stroke-width="6" stroke-linecap="round"/>
    <path d="M528 310C567.399 317.482 606.448 312.145 645 294C690.057 272.786 730.686 233.474 766 176" stroke="#284139" stroke-width="4.5" stroke-linecap="round" opacity="0.82"/>
    <path d="M794 452C799.343 488.393 820.343 515.393 857 533" stroke="#284139" stroke-width="4.5" stroke-linecap="round" opacity="0.82"/>
  </g>
  <text x="640" y="536" text-anchor="middle" fill="#6A1A28" font-family="Cormorant, 'Times New Roman', serif" font-size="92" font-weight="400" letter-spacing="0.045em">LUCIMAR ANTUNES</text>
  <text x="640" y="613" text-anchor="middle" fill="#8CA18E" font-family="Outfit, Arial, sans-serif" font-size="37" font-weight="400" letter-spacing="0.32em">PSICÓLOGA</text>
</svg>
