<svg width="1280" height="720" viewBox="0 0 1280 720" fill="none" xmlns="http://www.w3.org/2000/svg">
  <rect width="1280" height="720" fill="#F6F4F0"/>
  <g opacity="0.14">
    <circle cx="968" cy="158" r="130" stroke="#C8DDBF" stroke-width="1.5"/>
    <circle cx="320" cy="520" r="106" stroke="#284139" stroke-width="1.5"/>
  </g>
  <g transform="translate(0 8)">
    <path d="M549 178V407C549 464.118 511.588 503.618 446 531" stroke="#6A1A28" stroke-width="6.5" stroke-linecap="round"/>
    <path d="M549 407C590.035 401.986 628.869 389.319 665.5 368C729.612 330.676 766 267.815 766 177.5" stroke="#6A1A28" stroke-width="6.5" stroke-linecap="round"/>
    <path d="M486 446C494.767 343.571 525.6 181 642.5 181C758.455 181 792 343.64 792 446" stroke="#284139" stroke-width="6.5" stroke-linecap="round"/>
    <path d="M523 316C560.429 321.298 598.929 317.131 638.5 294.5C688.798 265.731 731.631 222.564 767 165" stroke="#284139" stroke-width="4.6" stroke-linecap="round" opacity="0.78"/>
    <path d="M792 446C800.783 486.856 825.783 516.19 867 534" stroke="#284139" stroke-width="4.6" stroke-linecap="round" opacity="0.78"/>
  </g>
  <text x="640" y="540" text-anchor="middle" fill="#6A1A28" font-family="Cormorant, 'Times New Roman', serif" font-size="92" font-weight="400" letter-spacing="0.045em">LUCIMAR ANTUNES</text>
  <text x="640" y="614" text-anchor="middle" fill="#8CA18E" font-family="Outfit, Arial, sans-serif" font-size="36" font-weight="400" letter-spacing="0.3em">PSICÓLOGA</text>
</svg>
