<svg width="760" height="140" viewBox="0 0 760 140" fill="none" xmlns="http://www.w3.org/2000/svg">
  <g>
    <path d="M76 71C86 93 113 102 146 99C185 95 225 75 259 53C295 30 334 19 361 25C384 30 398 46 395 65C392 84 374 94 353 93C329 91 309 79 286 65" stroke="#8B2535" stroke-width="2.9" stroke-linecap="round"/>
    <path d="M87 42C106 17 140 17 171 43C197 65 223 74 246 72C270 69 292 55 303 35C314 16 335 13 345 24C356 35 353 54 337 65C315 80 280 81 240 59C210 43 183 35 159 37C136 38 118 47 107 61C96 76 67 80 48 75C33 71 25 62 25 52" stroke="#6B7E70" stroke-width="2.9" stroke-linecap="round"/>
    <path d="M260 66C248 74 245 86 258 95" stroke="#7A6B60" stroke-width="2.5" stroke-linecap="round"/>
    <text x="420" y="72" text-anchor="middle" fill="#8B2535" font-family="Cormorant, 'Times New Roman', serif" font-size="34" font-weight="400" letter-spacing="0.05em">LUCIMAR ANTUNES</text>
  </g>
</svg>
